<svg xmlns="http://www.w3.org/2000/svg" fill="none" viewBox="0 0 96 96" id="Fastapi--Streamline-Svg-Logos">
  <desc>
    Fastapi Streamline Icon: https://streamlinehq.com
  </desc>
  <path fill="#009688" d="M9.68139 39.3186C4.88835 39.3186 1 43.207 1 48s3.88835 8.6814 8.68139 8.6814c4.79301 0 8.68131 -3.8884 8.68131 -8.6814s-3.8883 -8.6814 -8.68131 -8.6814ZM9.22904 54.959v-5.4454H6.20188l4.34942 -8.4726v5.4454h2.914L9.22904 54.959Z" opacity=".98" stroke-width="1"></path>
  <path fill="#009688" d="M25.2959 55.4422V40.4499h9.043v1.7956h-6.9445v4.5215H33.56v1.774h-6.1656v6.9012h-2.0985Zm14.1989 -1.4495 0.3088 -0.0011c0.3502 -0.0025 0.6655 -0.0093 0.946 -0.0205 0.375 -0.0289 0.6851 -0.0721 0.9302 -0.1298V50.488c-0.1442 -0.0721 -0.3822 -0.1298 -0.7139 -0.1731 -0.3173 -0.0576 -0.7067 -0.0865 -1.1682 -0.0865 -0.3029 0 -0.6274 0.0216 -0.9735 0.0649 -0.3317 0.0433 -0.6418 0.137 -0.9303 0.2813 -0.274 0.1298 -0.5048 0.3173 -0.6923 0.5624 -0.1875 0.2308 -0.2812 0.5409 -0.2812 0.9303 0 0.7211 0.2308 1.2259 0.6923 1.5144 0.4615 0.274 1.0889 0.411 1.8821 0.411Zm-0.1731 -10.0814c0.7572 0 1.4003 0.0951 1.9294 0.2852l0.1042 0.0393c0.525 0.1885 0.9495 0.4586 1.2735 0.8104l0.0678 0.0766c0.3462 0.375 0.5914 0.8293 0.7356 1.363 0.1442 0.5192 0.2163 1.0961 0.2163 1.7307v7.031l-0.3894 0.0675c-0.1038 0.0184 -0.2192 0.0392 -0.3461 0.0623l-0.2353 0.0324c-0.2434 0.0325 -0.5111 0.0649 -0.8032 0.0974 -0.3894 0.0432 -0.8148 0.0793 -1.2764 0.1081 -0.4471 0.0433 -0.8942 0.0649 -1.3413 0.0649 -0.6345 0 -1.2187 -0.0649 -1.7523 -0.1947 -0.5336 -0.1298 -0.9952 -0.3317 -1.3846 -0.6057 -0.3894 -0.2885 -0.6922 -0.6634 -0.9086 -1.125 -0.2163 -0.4615 -0.3245 -1.0168 -0.3245 -1.6658 0 -0.6201 0.1226 -1.1538 0.3678 -1.6009 0.2596 -0.4471 0.6057 -0.8076 1.0384 -1.0817 0.4327 -0.274 0.9375 -0.4759 1.5144 -0.6057 0.5769 -0.1298 1.1826 -0.1947 1.8172 -0.1947 0.2019 0 0.4111 0.0144 0.6274 0.0432 0.2163 0.0145 0.4183 0.0433 0.6058 0.0866l0.1923 0.0288c0.0913 0.0144 0.1754 0.0289 0.2524 0.0433l0.2942 0.06c0.0338 0.0075 0.0615 0.0139 0.0831 0.0193v-0.5625c0 -0.3317 -0.036 -0.6562 -0.1081 -0.9735 -0.0721 -0.3317 -0.2019 -0.6202 -0.3894 -0.8653 -0.1875 -0.2597 -0.4471 -0.4616 -0.7789 -0.6058 -0.3173 -0.1586 -0.7355 -0.238 -1.2547 -0.238 -0.6082 0 -1.1497 0.0424 -1.6245 0.1273l-0.3305 0.0617c-0.3903 0.0759 -0.6905 0.1572 -0.9007 0.2437l-0.238 -1.6658c0.2596 -0.1154 0.6923 -0.2236 1.2981 -0.3245 0.5451 -0.1039 1.1312 -0.161 1.7582 -0.1713l0.2104 -0.0018Zm10.265 10.0814c0.8221 0 1.4278 -0.1082 1.8172 -0.3245 0.4039 -0.2163 0.6058 -0.5625 0.6058 -1.0384 0 -0.4904 -0.1947 -0.8798 -0.5841 -1.1683 -0.3894 -0.2884 -1.0312 -0.6129 -1.9254 -0.9735 -0.4327 -0.1731 -0.851 -0.3461 -1.2548 -0.5192 -0.3894 -0.1875 -0.7284 -0.4038 -1.0168 -0.649 -0.2885 -0.2452 -0.5192 -0.5409 -0.6923 -0.887 -0.1731 -0.3461 -0.2596 -0.7716 -0.2596 -1.2764 0 -0.9952 0.3678 -1.7812 1.1033 -2.3581 0.7356 -0.5913 1.738 -0.887 3.0071 -0.887 0.3173 0 0.6346 0.0217 0.9519 0.0649 0.3173 0.0289 0.613 0.0721 0.887 0.1298 0.2349 0.0371 0.4433 0.0795 0.6252 0.1272l0.2415 0.0662c0.1434 0.0405 0.2583 0.077 0.3448 0.1095l-0.3678 1.7307c-0.2163 -0.1154 -0.5552 -0.2308 -1.0168 -0.3461 -0.4615 -0.1298 -1.0167 -0.1947 -1.6658 -0.1947 -0.5624 0 -1.0528 0.1153 -1.4711 0.3461 -0.4182 0.2163 -0.6273 0.5625 -0.6273 1.0384 0 0.2452 0.0432 0.4616 0.1298 0.649 0.1009 0.1875 0.2451 0.3606 0.4326 0.5193 0.202 0.1442 0.4471 0.2812 0.7356 0.411 0.2884 0.1298 0.6346 0.2668 1.0384 0.411 0.5336 0.202 1.0096 0.4039 1.4278 0.6058 0.4183 0.1875 0.7717 0.411 1.0601 0.6706 0.3029 0.2597 0.5336 0.5769 0.6923 0.9519 0.1586 0.3606 0.238 0.8077 0.238 1.3413 0 1.0385 -0.3894 1.8245 -1.1683 2.3581 -0.7644 0.5337 -1.8605 0.8005 -3.2883 0.8005 -0.9454 0 -1.6956 -0.0781 -2.2505 -0.2343l-0.4531 -0.1313c-0.3652 -0.1084 -0.6251 -0.1956 -0.7795 -0.2618l0.3678 -1.7307 0.2764 0.1009c0.2148 0.077 0.4904 0.1731 0.8269 0.2885 0.4751 0.1629 1.0972 0.2491 1.8661 0.2587l0.1459 0.0009Zm8.8983 -9.8001h4.2618V45.88H58.485v5.1921c0 0.5625 0.0432 1.0312 0.1298 1.4062 0.0865 0.3606 0.2163 0.6491 0.3894 0.8654 0.1731 0.2019 0.3894 0.3461 0.649 0.4327 0.2596 0.0865 0.5625 0.1298 0.9086 0.1298 0.6058 0 1.0889 -0.0649 1.4495 -0.1947l0.7788 -0.3029 0.3894 1.6658c-0.2019 0.101 -0.5552 0.2236 -1.06 0.3678 -0.5048 0.1586 -1.0817 0.2379 -1.7307 0.2379 -0.7644 0 -1.399 -0.0937 -1.9038 -0.2812 -0.4904 -0.2019 -0.887 -0.4976 -1.1899 -0.887 -0.3029 -0.3894 -0.5192 -0.8653 -0.649 -1.4278 -0.1154 -0.5769 -0.1731 -1.2404 -0.1731 -1.9903V41.0556l2.012 -0.3461v3.4831Zm16.9684 11.2496c-0.2452 -0.649 -0.476 -1.2836 -0.6923 -1.9038 -0.2164 -0.6346 -0.4399 -1.2764 -0.6707 -1.9254h-6.793l-1.3629 3.8292h-2.1851l0.4857 -1.3298c0.2781 -0.7583 0.5473 -1.4858 0.8074 -2.1827l0.6306 -1.684c0.3992 -1.0615 0.7892 -2.0768 1.17 -3.046 0.4359 -1.0769 0.8661 -2.1082 1.2905 -3.0939l0.159 -0.3676c0.4759 -1.1105 0.9735 -2.2066 1.4927 -3.2883h1.9254c0.4327 0.9014 0.8503 1.8128 1.253 2.7343l0.2397 0.554c0.476 1.0962 0.9519 2.25 1.4279 3.4615 0.4413 1.0903 0.8885 2.2391 1.3415 3.4462l0.4807 1.2838c0.4088 1.0951 0.8398 2.266 1.2931 3.5125h-2.2932Zm-1.9687 -5.5599c-0.4615 -1.2548 -0.9231 -2.4663 -1.3846 -3.6345 -0.4471 -1.1827 -0.9158 -2.3148 -1.4062 -3.3965 -0.5048 1.0817 -0.9879 2.2138 -1.4495 3.3965 -0.4471 1.1682 -0.8942 2.3797 -1.3413 3.6345h5.5816Zm10.2568 -9.5838c2.0503 0 3.6357 0.3828 4.7562 1.1485l0.0898 0.063c1.1394 0.7932 1.7091 1.9831 1.7091 3.5695 0 0.8654 -0.1587 1.6082 -0.476 2.2283 -0.3028 0.6058 -0.7499 1.1034 -1.3413 1.4928 -0.5769 0.375 -1.2836 0.649 -2.1201 0.8221 -0.8365 0.173 -1.7812 0.2596 -2.834 0.2596h-1.6658v5.5599h-2.0985v-14.776c0.5913 -0.1442 1.2475 -0.2379 1.9687 -0.2812 0.662 -0.0519 1.2714 -0.0805 1.8282 -0.0857l0.1837 -0.0008Zm0.1731 1.8388 -0.4079 0.0017c-0.6974 0.0057 -1.2465 0.0268 -1.6473 0.0632v5.8845h1.5792c0.7212 0 1.3702 -0.0433 1.9471 -0.1298 0.5769 -0.101 1.06 -0.2597 1.4495 -0.476 0.4038 -0.2308 0.7139 -0.5408 0.9302 -0.9302 0.2163 -0.3895 0.3245 -0.887 0.3245 -1.4928 0 -0.5408 -0.1014 -0.9929 -0.3042 -1.3563l-0.0419 -0.0715c-0.2164 -0.375 -0.5192 -0.6707 -0.9086 -0.887 -0.375 -0.2308 -0.8149 -0.3894 -1.3197 -0.476 -0.5048 -0.0865 -1.0384 -0.1298 -1.6009 -0.1298Zm8.9872 -1.6874h2.0984v14.9923h-2.0984V40.4499Z" stroke-width="1"></path>
</svg>