<svg xmlns="http://www.w3.org/2000/svg" fill="none" viewBox="0 0 96 96" id="Hugging-Face--Streamline-Svg-Logos">
  <desc>
    Hugging Face Streamline Icon: https://streamlinehq.com
  </desc>
  <path fill="#000b1b" d="M27.5527 51.787v-7.4827h1.9799v2.7862h2.2331v-2.7862h1.9799v7.4827h-1.9799v-2.9698h-2.2331v2.9698h-1.9799Zm9.4344 0.1381c-0.6293 0 -1.0859 -0.211 -1.3703 -0.6331 -0.2839 -0.4297 -0.4258 -1.0014 -0.4258 -1.7147v-3.5458h1.9799v3.2926c0 0.3684 0.046 0.6139 0.1381 0.7366 0.0997 0.1228 0.2456 0.1842 0.4375 0.1842 0.1841 0 0.3376 -0.0383 0.4604 -0.115 0.1228 -0.0768 0.2456 -0.2073 0.3684 -0.3915v-3.7066h1.9799v5.755h-1.6116l-0.1381 -0.7597h-0.046c-0.2302 0.2762 -0.4873 0.495 -0.7712 0.6561 -0.2763 0.1612 -0.6101 0.2417 -1.0015 0.2417l0.0003 0.0002Zm7.0003 2.2331c-0.4374 0 -0.8403 -0.0499 -1.2084 -0.1496 -0.3683 -0.0922 -0.6637 -0.2418 -0.8863 -0.449 -0.2149 -0.2071 -0.3223 -0.4835 -0.3223 -0.8288 0 -0.4527 0.2685 -0.8211 0.8058 -1.1052v-0.046c-0.1471 -0.1088 -0.2755 -0.2411 -0.3799 -0.3913 -0.0998 -0.1612 -0.1496 -0.3608 -0.1496 -0.5987 0 -0.1995 0.0576 -0.3952 0.1726 -0.587 0.1228 -0.1919 0.2802 -0.3568 0.472 -0.495v-0.046c-0.2073 -0.1382 -0.3913 -0.3339 -0.5525 -0.5872 -0.1535 -0.2609 -0.2303 -0.5563 -0.2303 -0.8862 0 -0.4759 0.1151 -0.8672 0.3454 -1.1736 0.2379 -0.3147 0.5448 -0.5449 0.9208 -0.6907 0.3761 -0.1535 0.7751 -0.2303 1.1975 -0.2303 0.3376 0 0.6446 0.0461 0.9209 0.1382h2.1407v1.4279h-0.8288c0.0229 0.0691 0.0421 0.1574 0.0575 0.2647 0.023 0.1075 0.0345 0.2188 0.0345 0.3338 0 0.4529 -0.1035 0.8212 -0.3108 1.1052 -0.2072 0.2762 -0.4872 0.4796 -0.8403 0.61 -0.353 0.1305 -0.7443 0.1957 -1.1736 0.1957 -0.1918 0 -0.4067 -0.0268 -0.6446 -0.0806 -0.0921 0.0844 -0.1381 0.1957 -0.1381 0.3338 0 0.1228 0.0614 0.2111 0.1842 0.2649 0.1304 0.0536 0.3376 0.0805 0.6216 0.0805h0.8633c0.7213 0 1.2779 0.119 1.6691 0.3568 0.399 0.2303 0.5986 0.6101 0.5986 1.1399 0 0.4145 -0.1382 0.779 -0.4144 1.0932 -0.2686 0.3146 -0.6523 0.5602 -1.1508 0.7367 -0.4987 0.1765 -1.0899 0.2648 -1.7723 0.2648l-0.0015 -0.0009Zm0.1842 -5.3637c0.1842 0 0.3338 -0.0652 0.4489 -0.1957 0.1152 -0.1304 0.1726 -0.3339 0.1726 -0.6101 0 -0.2686 -0.0574 -0.4643 -0.1726 -0.5871 -0.1151 -0.1304 -0.2647 -0.1956 -0.4489 -0.1956 -0.1842 0 -0.3339 0.0652 -0.4489 0.1956 -0.1152 0.1228 -0.1727 0.3185 -0.1727 0.5871 0 0.2762 0.0575 0.4797 0.1727 0.6101 0.115 0.1305 0.2647 0.1957 0.4489 0.1957Zm0.1381 4.1445c0.3223 0 0.5909 -0.0499 0.8057 -0.1497 0.215 -0.0921 0.3223 -0.2187 0.3223 -0.3798 0 -0.1535 -0.069 -0.2494 -0.2071 -0.2878 -0.1305 -0.0384 -0.3185 -0.0576 -0.5641 -0.0576h-0.4489c-0.2302 0 -0.4067 -0.0076 -0.5295 -0.023 -0.1151 -0.0076 -0.2148 -0.023 -0.2993 -0.046 -0.1381 0.1381 -0.2072 0.2762 -0.2072 0.4144 0 0.1841 0.1036 0.3185 0.3108 0.4029 0.2149 0.0844 0.4874 0.1266 0.8173 0.1266Zm5.9614 1.2203c-0.4375 0 -0.8403 -0.0499 -1.2084 -0.1496 -0.3683 -0.0922 -0.6638 -0.2418 -0.8864 -0.449 -0.2148 -0.2072 -0.3223 -0.4835 -0.3223 -0.8288 0 -0.4527 0.2687 -0.8211 0.8058 -1.1052v-0.046c-0.1471 -0.1088 -0.2755 -0.2411 -0.3798 -0.3913 -0.0999 -0.1612 -0.1497 -0.3608 -0.1497 -0.5987 0 -0.1995 0.0576 -0.3952 0.1726 -0.587 0.1228 -0.1919 0.2802 -0.3569 0.4721 -0.495v-0.0461c-0.2072 -0.1381 -0.3914 -0.3338 -0.5526 -0.5871 -0.1535 -0.2609 -0.2302 -0.5563 -0.2302 -0.8863 0 -0.4758 0.1151 -0.8671 0.3453 -1.1735 0.2379 -0.3147 0.5448 -0.5449 0.9209 -0.6907 0.376 -0.1535 0.775 -0.2303 1.1975 -0.2303 0.3378 0 0.6448 0.0461 0.921 0.1382h2.1407v1.4279h-0.8288c0.023 0.0691 0.0422 0.1574 0.0576 0.2647 0.0229 0.1075 0.0344 0.2188 0.0344 0.3338 0 0.4528 -0.1035 0.8212 -0.3107 1.1052 -0.2072 0.2762 -0.4873 0.4796 -0.8404 0.61 -0.3529 0.1305 -0.7443 0.1957 -1.1735 0.1957 -0.1918 0 -0.4067 -0.0268 -0.6447 -0.0806 -0.092 0.0844 -0.1381 0.1957 -0.1381 0.3338 0 0.1228 0.0614 0.211 0.1842 0.2648 0.1305 0.0537 0.3376 0.0806 0.6216 0.0806h0.8633c0.7214 0 1.278 0.1189 1.6692 0.3568 0.399 0.2303 0.5985 0.6101 0.5985 1.1399 0 0.4145 -0.1381 0.7789 -0.4144 1.0932 -0.2686 0.3146 -0.6523 0.5602 -1.1507 0.7367 -0.4988 0.1765 -1.09 0.2648 -1.7724 0.2648l-0.0016 -0.0009Zm0.1841 -5.3638c0.1842 0 0.3338 -0.0652 0.449 -0.1957 0.1151 -0.1304 0.1727 -0.3338 0.1727 -0.61 0 -0.2686 -0.0576 -0.4643 -0.1727 -0.5871 -0.1152 -0.1304 -0.2648 -0.1956 -0.449 -0.1956 -0.1841 0 -0.3338 0.0652 -0.4489 0.1956 -0.1151 0.1228 -0.1727 0.3185 -0.1727 0.5871 0 0.2762 0.0576 0.4796 0.1727 0.61 0.1151 0.1305 0.2648 0.1957 0.4489 0.1957Zm0.1382 4.1446c0.3223 0 0.5908 -0.0499 0.8058 -0.1497 0.2148 -0.0921 0.3223 -0.2187 0.3223 -0.3799 0 -0.1534 -0.0691 -0.2494 -0.2073 -0.2877 -0.1304 -0.0384 -0.3185 -0.0576 -0.5641 -0.0576h-0.4489c-0.2301 0 -0.4067 -0.0076 -0.5295 -0.023 -0.1151 -0.0076 -0.2148 -0.023 -0.2992 -0.046 -0.1382 0.1381 -0.2073 0.2762 -0.2073 0.4143 0 0.1842 0.1037 0.3185 0.3109 0.403 0.2149 0.0844 0.4873 0.1266 0.8173 0.1266Zm3.8663 -1.1508v-5.755h1.9799v5.755h-1.9799Zm0.99 -6.4689c-0.3223 0 -0.5833 -0.0882 -0.7828 -0.2647 -0.1996 -0.1842 -0.2993 -0.426 -0.2993 -0.7252 0 -0.2993 0.0997 -0.5373 0.2993 -0.7138 0.1995 -0.1841 0.4605 -0.2762 0.7828 -0.2762 0.3223 0 0.5832 0.0921 0.7827 0.2762 0.1995 0.1765 0.2993 0.4145 0.2993 0.7138 0 0.2992 -0.0998 0.541 -0.2993 0.7252 -0.1995 0.1765 -0.4604 0.2647 -0.7827 0.2647Zm2.3265 6.4689v-5.755h1.6115l0.1382 0.6906h0.046c0.2302 -0.2225 0.4912 -0.4143 0.7827 -0.5755 0.2993 -0.1688 0.6447 -0.2533 1.0361 -0.2533 0.6369 0 1.0931 0.215 1.3702 0.6447 0.284 0.4221 0.4259 0.99 0.4259 1.7039v3.5458h-1.9799v-3.2926c0 -0.3684 -0.0461 -0.614 -0.1381 -0.7367 -0.0921 -0.1228 -0.2379 -0.1842 -0.4375 -0.1842 -0.1841 0 -0.3376 0.0383 -0.4604 0.1152 -0.1228 0.0767 -0.2609 0.1841 -0.4144 0.3223v3.775l-1.9803 -0.0002Zm8.7944 2.3711c-0.4374 0 -0.8404 -0.0499 -1.2084 -0.1496 -0.3683 -0.0922 -0.6637 -0.2418 -0.8863 -0.4491 -0.2149 -0.2071 -0.3223 -0.4834 -0.3223 -0.8287 0 -0.4528 0.2685 -0.8211 0.8058 -1.1052v-0.0461c-0.1472 -0.1087 -0.2755 -0.241 -0.3799 -0.3913 -0.0998 -0.1611 -0.1497 -0.3607 -0.1497 -0.5986 0 -0.1995 0.0576 -0.3952 0.1727 -0.587 0.1228 -0.1919 0.2802 -0.3569 0.4719 -0.495v-0.0461c-0.2072 -0.1381 -0.3914 -0.3338 -0.5525 -0.5871 -0.1535 -0.2609 -0.2302 -0.5564 -0.2302 -0.8863 0 -0.4758 0.1151 -0.8671 0.3454 -1.1736 0.2378 -0.3147 0.5448 -0.5448 0.9208 -0.6906 0.3761 -0.1535 0.7751 -0.2303 1.1975 -0.2303 0.3376 0 0.6446 0.0461 0.9208 0.1382h2.1408v1.4279h-0.8288c0.023 0.0691 0.0422 0.1573 0.0576 0.2647 0.023 0.1075 0.0345 0.2187 0.0345 0.3338 0 0.4528 -0.1036 0.8212 -0.3108 1.1052 -0.2072 0.2762 -0.4873 0.4796 -0.8403 0.61 -0.353 0.1305 -0.7444 0.1957 -1.1736 0.1957 -0.1919 0 -0.4067 -0.0268 -0.6446 -0.0806 -0.0921 0.0844 -0.1381 0.1957 -0.1381 0.3338 0 0.1228 0.0614 0.211 0.1842 0.2648 0.1304 0.0537 0.3376 0.0805 0.6216 0.0805h0.8633c0.7213 0 1.2779 0.119 1.6691 0.3569 0.399 0.2303 0.5985 0.6101 0.5985 1.1399 0 0.4145 -0.1381 0.7789 -0.4144 1.0932 -0.2685 0.3146 -0.6522 0.5602 -1.1508 0.7366 -0.4988 0.1766 -1.0899 0.2649 -1.7723 0.2649l-0.0015 -0.0009Zm0.1841 -5.3638c0.1842 0 0.3339 -0.0652 0.4489 -0.1957 0.1152 -0.1304 0.1727 -0.3338 0.1727 -0.61 0 -0.2686 -0.0575 -0.4644 -0.1727 -0.5871 -0.115 -0.1304 -0.2647 -0.1956 -0.4489 -0.1956 -0.1841 0 -0.3338 0.0652 -0.4489 0.1956 -0.1151 0.1227 -0.1726 0.3185 -0.1726 0.5871 0 0.2762 0.0575 0.4796 0.1726 0.61 0.1151 0.1305 0.2648 0.1957 0.4489 0.1957Zm0.1382 4.1446c0.3223 0 0.5909 -0.0499 0.8057 -0.1497 0.215 -0.0921 0.3223 -0.2187 0.3223 -0.3799 0 -0.1534 -0.069 -0.2494 -0.2071 -0.2877 -0.1305 -0.0384 -0.3185 -0.0576 -0.5641 -0.0576h-0.4489c-0.2302 0 -0.4067 -0.0076 -0.5295 -0.0231 -0.1151 -0.0076 -0.2149 -0.0229 -0.2993 -0.0459 -0.1382 0.1381 -0.2072 0.2762 -0.2072 0.4143 0 0.1842 0.1036 0.3185 0.3108 0.403 0.2148 0.0844 0.4872 0.1266 0.8173 0.1266Zm6.3319 -1.1508v-7.4828h4.8802v1.6572h-2.9003v1.4279h2.4863v1.6571h-2.4863v2.7395l-1.9799 0.0011Zm7.0459 0.1381c-0.3606 0 -0.6714 -0.0805 -0.9323 -0.2417 -0.2491 -0.1643 -0.4514 -0.3903 -0.587 -0.6561 -0.1383 -0.2686 -0.2073 -0.5603 -0.2073 -0.8749 0 -0.5986 0.2456 -1.0666 0.7367 -1.4039 0.4911 -0.3454 1.2888 -0.5755 2.3939 -0.6907 -0.0461 -0.399 -0.3147 -0.5985 -0.8058 -0.5985 -0.2072 0 -0.4259 0.0421 -0.6561 0.1265 -0.2303 0.0768 -0.495 0.1958 -0.7943 0.3569l-0.6906 -1.2888c0.4067 -0.2456 0.8173 -0.4336 1.2312 -0.5641 0.4213 -0.1302 0.8597 -0.1962 1.3007 -0.1957 0.7521 0 1.3388 0.215 1.7615 0.6447 0.422 0.4221 0.6331 1.1052 0.6331 2.0495v3.2002h-1.6115l-0.1382 -0.5526h-0.046c-0.2303 0.2073 -0.4759 0.3761 -0.7368 0.5065 -0.2532 0.1228 -0.5371 0.1842 -0.8518 0.1842l0.0006 -0.0015Zm0.6907 -1.5192c0.1612 0 0.2955 -0.0345 0.4029 -0.1035 0.1074 -0.0767 0.2111 -0.1727 0.3108 -0.2878v-0.7828c-0.4681 0.0691 -0.7942 0.1727 -0.9784 0.3108 -0.1765 0.1382 -0.2648 0.2879 -0.2648 0.449 0 0.2762 0.1766 0.4143 0.5295 0.4143Zm6.5863 1.5192c-0.5449 0 -1.0361 -0.119 -1.4736 -0.3569 -0.4374 -0.2378 -0.7866 -0.5794 -1.0475 -1.0245 -0.2533 -0.4527 -0.3799 -0.9975 -0.3799 -1.6343 0 -0.6369 0.142 -1.1779 0.426 -1.6235 0.2915 -0.4528 0.6714 -0.798 1.1399 -1.036 0.468 -0.2379 0.9745 -0.3569 1.5191 -0.3569 0.3454 0 0.6563 0.0538 0.9325 0.1612 0.2839 0.1075 0.5333 0.2533 0.7482 0.4375l-0.9209 1.2659c-0.1228 -0.1073 -0.234 -0.1802 -0.3338 -0.2186 -0.0991 -0.0383 -0.2045 -0.0578 -0.3108 -0.0576 -0.3684 0 -0.6561 0.1304 -0.8633 0.3914 -0.2073 0.2532 -0.3108 0.5986 -0.3108 1.0359 0 0.4375 0.1075 0.7867 0.3223 1.0476 0.2148 0.2532 0.4757 0.3799 0.7827 0.3799 0.1612 0 0.3185 -0.0346 0.4719 -0.1037 0.1574 -0.0744 0.3077 -0.1631 0.4491 -0.2647l0.7596 1.2888c-0.2839 0.2533 -0.5985 0.4298 -0.9438 0.5295 -0.3454 0.0921 -0.6677 0.1381 -0.9669 0.1381v0.0009Zm5.1496 0c-0.5602 0 -1.0667 -0.119 -1.5191 -0.3569 -0.4451 -0.2378 -0.7982 -0.5794 -1.0591 -1.0245 -0.2609 -0.4527 -0.3913 -0.9975 -0.3913 -1.6343 0 -0.6216 0.1304 -1.1551 0.3913 -1.5996 0.2687 -0.4528 0.614 -0.8019 1.036 -1.0475 0.4221 -0.2456 0.8672 -0.3684 1.3356 -0.3684 0.5678 0 1.036 0.1267 1.4039 0.3799 0.3761 0.2456 0.6523 0.5794 0.8288 1.0015 0.1842 0.422 0.2763 0.8902 0.2763 1.4039 0 0.1688 -0.0115 0.3339 -0.0345 0.495 -0.0153 0.1535 -0.0308 0.2647 -0.0461 0.3338h-3.2806c0.092 0.3454 0.2571 0.5871 0.495 0.7252 0.2378 0.1305 0.518 0.1957 0.8403 0.1957 0.3684 0 0.7597 -0.1151 1.1736 -0.3454l0.6446 1.1736c-0.307 0.2149 -0.6523 0.3799 -1.036 0.495 -0.3837 0.1151 -0.7367 0.1727 -1.059 0.1727l0.0003 0.0003Zm-1.0821 -3.7066h1.7039c0 -0.2225 -0.0576 -0.4143 -0.1726 -0.5755 -0.1075 -0.1689 -0.3108 -0.2533 -0.6101 -0.2533 -0.2149 0 -0.4067 0.0653 -0.5756 0.1957 -0.1689 0.1305 -0.2839 0.3415 -0.3453 0.6331h-0.0003Z" stroke-width="1"></path>
  <path fill="#ffffff" d="M23.3041 52.8846c-0.0583 -0.2203 -0.1528 -0.4292 -0.2797 -0.6185 0.0272 -0.0998 0.0479 -0.201 0.0618 -0.3033 0.0899 -0.6494 -0.1351 -1.2442 -0.5595 -1.7039 -0.2298 -0.2512 -0.4761 -0.417 -0.737 -0.5189 0.1712 -0.7327 0.2579 -1.4822 0.2584 -2.2352 0 -0.3436 -0.0195 -0.6803 -0.0521 -1.0119 -0.017 -0.1656 -0.0376 -0.3309 -0.0616 -0.4956 -0.0748 -0.4861 -0.1856 -0.966 -0.3316 -1.4355 -0.0958 -0.3085 -0.2065 -0.6123 -0.3318 -0.91 -0.1879 -0.441 -0.4073 -0.8678 -0.6564 -1.2768 -0.1636 -0.2723 -0.3416 -0.5357 -0.5334 -0.789 -0.094 -0.1279 -0.1919 -0.2528 -0.2938 -0.3745 -0.3019 -0.367 -0.6298 -0.7114 -0.9816 -1.0309 -0.1167 -0.1074 -0.2368 -0.2111 -0.3601 -0.3109 -0.1214 -0.1013 -0.2455 -0.1993 -0.3721 -0.294 -0.2548 -0.1896 -0.5182 -0.3676 -0.7892 -0.5332 -1.4974 -0.9095 -3.2535 -1.4311 -5.1312 -1.4311 -5.46484 0 -9.89407 4.4292 -9.89407 9.894 -0.00014 0.762 0.08814 1.5214 0.26308 2.2625 -0.23472 0.1019 -0.45977 0.2606 -0.6683 0.4905 -0.42423 0.4597 -0.64938 1.0522 -0.5593 1.7017 0.01358 0.1032 0.03423 0.2054 0.06161 0.3058 -0.1267 0.1894 -0.22124 0.3984 -0.2797 0.6187 -0.130401 0.4956 -0.087478 0.9426 0.07824 1.3344 -0.180062 0.512 -0.13507 1.057 0.09954 1.5311 0.1706 0.3461 0.41477 0.6138 0.71567 0.8532 0.35784 0.2843 0.80576 0.5261 1.34637 0.7579 0.64461 0.2749 1.43113 0.5332 1.78864 0.628 0.92432 0.2394 1.81038 0.3911 2.70905 0.3984 1.28008 0.0119 2.38197 -0.2891 3.17087 -1.0592 0.3876 0.0475 0.7777 0.0713 1.1682 0.0712 0.4126 -0.0009 0.8247 -0.027 1.2344 -0.0778 0.7872 0.775 1.893 1.0787 3.1774 1.0664 0.8981 -0.007 1.7843 -0.1587 2.7058 -0.3985 0.3602 -0.0947 1.1464 -0.353 1.7919 -0.6278 0.5404 -0.2324 0.9882 -0.474 1.3485 -0.7581 0.2986 -0.2393 0.5426 -0.507 0.7133 -0.8531 0.237 -0.4739 0.2797 -1.019 0.1019 -1.5311 0.1642 -0.3916 0.2068 -0.8395 0.0765 -1.3344l0.0013 -0.0006Zm-0.917 1.3007c0.1816 0.3446 0.1932 0.734 0.0329 1.0965 -0.2429 0.5496 -0.8465 0.9824 -2.019 1.4474 -0.7288 0.2892 -1.3963 0.4739 -1.4018 0.4756 -0.9641 0.2501 -1.8364 0.377 -2.5906 0.377 -1.2496 0 -2.1798 -0.3448 -2.7699 -1.0259 -0.9974 0.1698 -2.0157 0.1756 -3.0154 0.0171 -0.5905 0.6698 -1.51484 1.0088 -2.75472 1.0088 -0.75491 0 -1.62673 -0.1269 -2.5906 -0.377 -0.00598 -0.0017 -0.67308 -0.1864 -1.40179 -0.4756 -1.17251 -0.4648 -1.7756 -0.8974 -2.01902 -1.4474 -0.16028 -0.3626 -0.14865 -0.752 0.03293 -1.0965 0.01684 -0.0319 0.03477 -0.0632 0.05401 -0.0933 -0.10889 -0.1634 -0.1818 -0.3482 -0.21418 -0.5418 -0.03236 -0.1937 -0.02336 -0.3921 0.02642 -0.582 0.07216 -0.2741 0.22125 -0.5021 0.42358 -0.6658 -0.09743 -0.1602 -0.16136 -0.3384 -0.18799 -0.524 -0.05824 -0.4036 0.07563 -0.8066 0.37707 -1.1356 0.23461 -0.2557 0.56637 -0.3964 0.93377 -0.3964h0.00978c-0.27699 -0.8877 -0.41739 -1.8125 -0.41652 -2.7427 0 -5.0715 4.11192 -9.1834 9.18336 -9.1834 5.0725 0 9.1834 4.1119 9.1834 9.1834 0.0006 0.9323 -0.1408 1.8593 -0.4194 2.7492 0.0444 -0.0043 0.0878 -0.0066 0.1304 -0.0066 0.3673 0 0.6992 0.1406 0.9338 0.3963 0.3012 0.3283 0.4354 0.7317 0.3771 1.1356 -0.0267 0.1856 -0.0906 0.3639 -0.188 0.5241 0.2023 0.1636 0.3514 0.3916 0.4235 0.6658 0.0497 0.1899 0.0587 0.3882 0.0263 0.582 -0.0323 0.1936 -0.1053 0.3782 -0.214 0.5418 0.0192 0.0298 0.0374 0.0611 0.054 0.093l0.0006 0.0004Z" stroke-width="1"></path>
  <path fill="#ff9d00" d="M22.3266 54.0908c0.1088 -0.1635 0.1817 -0.3481 0.2141 -0.5418 0.0324 -0.1937 0.0234 -0.392 -0.0263 -0.582 -0.0721 -0.274 -0.2212 -0.502 -0.4236 -0.6658 0.0974 -0.1602 0.1614 -0.3384 0.188 -0.524 0.0583 -0.4036 -0.0756 -0.8066 -0.377 -1.1355 -0.2347 -0.2557 -0.5665 -0.3964 -0.9338 -0.3964 -0.0427 0 -0.0861 0.0021 -0.1304 0.0066 0.2783 -0.8898 0.4194 -1.8169 0.4186 -2.7493 0 -5.0714 -4.1119 -9.1833 -9.1834 -9.1833 -5.07143 0 -9.18335 4.1108 -9.18335 9.1833 -0.00088 0.9299 0.13953 1.855 0.41652 2.7428h-0.00978c-0.3673 0 -0.69905 0.1407 -0.93366 0.3964 -0.30123 0.3283 -0.43532 0.7315 -0.37707 1.1355 0.02659 0.1856 0.09054 0.3639 0.18799 0.524 -0.20234 0.1638 -0.35143 0.3918 -0.42347 0.6659 -0.04975 0.19 -0.05873 0.3884 -0.02632 0.5822 0.0324 0.1936 0.10544 0.3783 0.21429 0.5418 -0.01945 0.0301 -0.03728 0.0614 -0.05401 0.0933 -0.18147 0.3446 -0.19321 0.7339 -0.03293 1.0964 0.24287 0.5496 0.84651 0.9826 2.01902 1.4475 0.72882 0.2891 1.39636 0.4739 1.40179 0.4756 0.96408 0.2501 1.83646 0.3771 2.5906 0.3771 1.23988 0 2.16458 -0.3391 2.75468 -1.009 0.9993 0.1586 2.0179 0.1528 3.0155 -0.017 0.5897 0.6811 1.5202 1.026 2.7699 1.026 0.7548 0 1.6267 -0.127 2.5906 -0.3771 0.0058 -0.0017 0.6731 -0.1865 1.4018 -0.4756 1.1725 -0.4647 1.7756 -0.8977 2.019 -1.4475 0.1603 -0.3626 0.1486 -0.7519 -0.0329 -1.0964 -0.0167 -0.0323 -0.0349 -0.0635 -0.0542 -0.0933l-0.0002 -0.0004Zm-12.1271 1.4323c-0.0508 0.089 -0.1053 0.1758 -0.1633 0.2602 -0.15268 0.2235 -0.3535 0.3943 -0.58648 0.5213 -0.44564 0.2429 -1.0095 0.3278 -1.58217 0.3278 -0.90497 0 -1.8332 -0.2118 -2.35262 -0.3467 -0.02554 -0.0067 -3.18718 -0.8998 -2.78729 -1.6604 0.06738 -0.1278 0.17833 -0.1789 0.31785 -0.1789 0.56365 0 1.58979 0.8393 2.03097 0.8393 0.09845 0 0.168 -0.042 0.19636 -0.1443 0.18799 -0.6743 -2.85683 -0.9577 -2.60038 -1.9342 0.04532 -0.1728 0.168 -0.2429 0.34067 -0.2429 0.74512 -0.0001 2.41782 1.3105 2.76772 1.3105 0.02684 0 0.04608 -0.0078 0.05651 -0.0243l0.00456 -0.0075c0.16409 -0.2711 0.06998 -0.4683 -1.05493 -1.1573l-0.10801 -0.0658c-1.23771 -0.7492 -2.10703 -1.1996 -1.6126 -1.7375 0.05683 -0.0622 0.13735 -0.0897 0.23526 -0.0897 0.11616 0 0.25667 0.0389 0.41141 0.104 0.65373 0.2757 1.55935 1.0276 1.9386 1.3551 0.1116 0.0971 0.17734 0.1565 0.17734 0.1565s0.47922 0.4983 0.76903 0.4983c0.06672 0 0.12323 -0.0262 0.16159 -0.0913 0.20559 -0.3464 -1.90818 -1.9484 -2.02771 -2.6091 -0.08074 -0.4479 0.05672 -0.6747 0.31111 -0.6747 0.12084 0 0.26841 0.0514 0.4313 0.1548 0.50529 0.3208 1.48111 1.9973 1.83862 2.6493 0.11975 0.2186 0.32416 0.311 0.50834 0.311 0.36545 0 0.65113 -0.3633 0.03347 -0.8249 -0.92833 -0.6947 -0.60255 -1.83 -0.15952 -1.8995 0.01891 -0.0029 0.03803 -0.0045 0.05705 -0.0046 0.40294 0 0.58071 0.6944 0.58071 0.6944s0.52084 1.3083 1.41592 2.2027c0.81202 0.8116 0.92542 1.4778 0.45242 2.308l-0.0018 0.0004Zm2.8938 0.1532 -0.0464 0.0055 -0.0792 0.0091c-0.0416 0.0043 -0.0833 0.0084 -0.1251 0.0123l-0.0409 0.0037 -0.0371 0.0032 -0.0529 0.0042c-0.0195 0.0014 -0.0389 0.0029 -0.0584 0.0041l-0.0582 0.004 -0.0129 0.0007 -0.0458 0.0027 -0.0195 0.001 -0.0543 0.0027 -0.0631 0.0026 -0.0574 0.002 -0.0383 0.0011h-0.0193c-0.012 0 -0.0238 0.0006 -0.0358 0.0007h-0.019c-0.0119 0 -0.0238 0 -0.0357 0.0007l-0.0486 0.0005h-0.068c-0.0534 0 -0.1065 -0.0005 -0.1597 -0.0015l-0.043 -0.001c-0.0122 0 -0.0244 -0.0006 -0.0366 -0.0009l-0.0455 -0.0015 -0.0568 -0.0021 -0.0509 -0.0022 -0.0133 -0.0006 -0.0486 -0.0026c-0.0134 -0.0007 -0.0269 -0.0014 -0.0403 -0.0022l-0.0314 -0.0019c-0.0394 -0.0025 -0.0789 -0.0053 -0.1183 -0.0084l-0.0413 -0.0032 -0.0522 -0.0045 -0.0609 -0.0056c-0.034 -0.0032 -0.0681 -0.0067 -0.1021 -0.0105h-0.0016c0.4966 -1.1083 0.2455 -2.1428 -0.758 -3.1447 -0.65813 -0.6573 -1.09649 -1.6279 -1.18668 -1.8408 -0.18387 -0.6309 -0.67058 -1.3323 -1.47895 -1.3323 -0.06835 0.0001 -0.13648 0.0055 -0.20396 0.0162 -0.35415 0.0556 -0.66363 0.2595 -0.88444 0.5661 -0.23852 -0.2967 -0.47052 -0.5326 -0.68024 -0.666 -0.31622 -0.2003 -0.63168 -0.3021 -0.9392 -0.3021 -0.3836 0 -0.72665 0.1576 -0.96572 0.4434l-0.00598 0.0073 -0.01347 -0.0566 -0.00054 -0.0024c-0.04547 -0.1945 -0.08367 -0.3908 -0.11454 -0.5881 0 -0.0014 0 -0.0027 -0.00065 -0.004l-0.00674 -0.0447c-0.00364 -0.0241 -0.00719 -0.0484 -0.01065 -0.0725 -0.00282 -0.0201 -0.00565 -0.0402 -0.00825 -0.0602 -0.00261 -0.02 -0.00544 -0.0401 -0.00783 -0.0602 -0.00261 -0.0202 -0.005 -0.0403 -0.00739 -0.0604 -0.00229 -0.0191 -0.0045 -0.0383 -0.00663 -0.0574l-0.00064 -0.0049c-0.0098 -0.0882 -0.0182 -0.1766 -0.02522 -0.265l-0.0038 -0.0512c-0.00109 -0.014 -0.00207 -0.0281 -0.00294 -0.0424 0 -0.0032 -0.00043 -0.0066 -0.00065 -0.0096l-0.00357 -0.0568c-0.00131 -0.0205 -0.0023 -0.041 -0.00338 -0.0616 -0.00109 -0.0204 -0.00218 -0.0409 -0.00305 -0.0616l-0.00217 -0.0538 -0.00065 -0.0163 -0.00163 -0.0498 -0.00119 -0.0421c0 -0.0169 -0.00077 -0.0338 -0.00109 -0.0507l-0.00087 -0.0531c-0.00022 -0.0177 0 -0.0353 -0.00044 -0.053 -0.00054 -0.0178 0 -0.0356 0 -0.0534 0 -4.5476 3.68704 -8.2347 8.23575 -8.2347 4.5488 0 8.2358 3.6871 8.2358 8.2347v0.1064c0 0.0177 -0.0004 0.0355 -0.0008 0.0531 0 0.0148 -0.0006 0.0293 -0.001 0.0441 0 0.0131 -0.0005 0.0261 -0.0011 0.0389 0 0.0166 -0.001 0.0331 -0.0015 0.0497v0.0014c-0.0014 0.0361 -0.0029 0.0722 -0.0045 0.1083l-0.0006 0.0119 -0.0028 0.0539 -0.0027 0.0427c-0.006 0.1012 -0.014 0.2024 -0.0236 0.3033v0.0014c-0.0018 0.0189 -0.0037 0.038 -0.0058 0.0569 -0.0048 0.044 -0.0097 0.088 -0.0146 0.132l-0.0055 0.0442 -0.0069 0.052c-0.0023 0.019 -0.0049 0.0379 -0.0077 0.0568 -0.0029 0.0212 -0.0061 0.0423 -0.0091 0.0633l-0.0076 0.0498 -0.0089 0.0565c-0.0031 0.0188 -0.0061 0.0375 -0.0097 0.0563 -0.0037 0.0187 -0.0065 0.0374 -0.0098 0.0562 -0.0065 0.0374 -0.0132 0.0746 -0.0205 0.1119 -0.0145 0.0742 -0.0296 0.1482 -0.0455 0.2221 -0.0041 0.0184 -0.0082 0.0369 -0.0124 0.0552 -0.2318 -0.2252 -0.5387 -0.3479 -0.8773 -0.3479 -0.3072 0 -0.623 0.1016 -0.9391 0.3021 -0.2098 0.1332 -0.4416 0.3692 -0.6803 0.666 -0.2212 -0.3068 -0.5306 -0.5105 -0.8844 -0.5663 -0.0674 -0.0105 -0.1357 -0.0159 -0.204 -0.0161 -0.8084 0 -1.2953 0.7013 -1.479 1.3323 -0.0911 0.2131 -0.5291 1.1834 -1.1877 1.8419 -1.0028 0.9995 -1.2562 2.0299 -0.767 3.1328l-0.0006 -0.0005Zm8.502 -2.2179 -0.0032 0.0097c-0.0023 0.0062 -0.0046 0.0124 -0.0071 0.0184 -0.0039 0.0093 -0.008 0.0183 -0.0124 0.0273 -0.0105 0.0215 -0.0225 0.0424 -0.0356 0.0624 -0.0182 0.0271 -0.0381 0.0529 -0.0597 0.0773 -0.005 0.0056 -0.0098 0.0112 -0.0154 0.0167 -0.0076 0.0084 -0.0158 0.0165 -0.0238 0.0247 -0.1464 0.145 -0.3694 0.2721 -0.6215 0.3888 -0.0286 0.0129 -0.0575 0.0258 -0.0868 0.0388l-0.0291 0.0129c-0.0195 0.0086 -0.0388 0.0172 -0.0593 0.0255 -0.0198 0.0085 -0.0398 0.0169 -0.0598 0.0251l-0.0607 0.0251c-0.1418 0.0584 -0.2871 0.1139 -0.4289 0.1689l-0.0605 0.0235 -0.06 0.0234c-0.0397 0.0156 -0.0791 0.0311 -0.1179 0.0467l-0.0577 0.0232 -0.0566 0.0233 -0.0279 0.0116c-0.0185 0.0078 -0.0368 0.0154 -0.0548 0.0233 -0.4171 0.1788 -0.717 0.3608 -0.6539 0.5867 0.0017 0.0065 0.0037 0.0125 0.0058 0.0184 0.0057 0.0167 0.0134 0.0326 0.023 0.0474 0.0056 0.0089 0.0121 0.0173 0.0194 0.0249 0.0741 0.0769 0.209 0.0647 0.379 0.0037 0.0138 -0.005 0.028 -0.0104 0.0422 -0.016 0.0098 -0.0037 0.0194 -0.0076 0.0292 -0.0115l0.0147 -0.0062c0.0389 -0.0165 0.0801 -0.0349 0.1222 -0.055 0.0106 -0.0049 0.0212 -0.0097 0.0319 -0.0153 0.2079 -0.1016 0.4436 -0.2387 0.6774 -0.3633 0.0359 -0.0194 0.0718 -0.038 0.1076 -0.0565 0.0585 -0.0303 0.1175 -0.0595 0.177 -0.0875 0.2215 -0.1041 0.4296 -0.178 0.597 -0.178 0.0785 0 0.1479 0.0161 0.2056 0.0531l0.0097 0.0064c0.0292 0.0206 0.0546 0.0459 0.0754 0.0751 0.0048 0.0068 0.0098 0.0139 0.014 0.0211 0.0046 0.0075 0.0089 0.0153 0.0131 0.0231 0.0827 0.1569 0.0134 0.3196 -0.1485 0.479 -0.1555 0.153 -0.3974 0.3031 -0.6724 0.442 -0.0203 0.0104 -0.0409 0.0207 -0.0615 0.0307 -0.8184 0.4018 -1.8897 0.7045 -1.9049 0.7083 -0.2856 0.074 -0.694 0.1712 -1.1541 0.2439l-0.0681 0.0106 -0.0111 0.0016c-0.1043 0.0156 -0.2089 0.0294 -0.3138 0.0414l-0.0097 0.001c-0.1907 0.0217 -0.3863 0.0375 -0.5822 0.0441h-0.0029c-0.0705 0.0026 -0.1408 0.0038 -0.2112 0.0038h-0.081c-0.1074 -0.0015 -0.2147 -0.0063 -0.3217 -0.0146 -0.0025 0 -0.0051 0 -0.0077 -0.0005 -0.0383 -0.0029 -0.0766 -0.0065 -0.1148 -0.0108 -0.0656 -0.007 -0.1311 -0.0157 -0.1964 -0.0259 -0.0255 -0.0043 -0.0526 -0.0087 -0.0788 -0.0133 -0.012 -0.0022 -0.0238 -0.0043 -0.0357 -0.0067l-0.0028 -0.0006c-0.0377 -0.0072 -0.0752 -0.0151 -0.1126 -0.0237 -0.0216 -0.0049 -0.0433 -0.0097 -0.0647 -0.0155l-0.0128 -0.0034c-0.0107 -0.0026 -0.0211 -0.0054 -0.0316 -0.0082l-0.0057 -0.0016 -0.0336 -0.0096c-0.0122 -0.0035 -0.0242 -0.0071 -0.0364 -0.0107l-0.0043 -0.0013 -0.0317 -0.0097c-0.0119 -0.0036 -0.0238 -0.0076 -0.0356 -0.0114 -0.0098 -0.0032 -0.0195 -0.0066 -0.0292 -0.0097l-0.0215 -0.0075c-0.0206 -0.0072 -0.041 -0.0148 -0.0615 -0.0226l-0.0193 -0.0075 -0.016 -0.0065c-0.0307 -0.0123 -0.0614 -0.0253 -0.0917 -0.0389l-0.0202 -0.0096 -0.0034 -0.0015c-0.0071 -0.0034 -0.0142 -0.0068 -0.0214 -0.0098 -0.014 -0.0068 -0.0279 -0.0137 -0.0417 -0.0208l-0.0041 -0.002 -0.02 -0.0106c-0.0356 -0.0185 -0.0704 -0.0382 -0.1046 -0.0593l-0.0187 -0.0114c-0.0096 -0.0059 -0.0184 -0.0119 -0.0277 -0.0178l-0.0243 -0.0162c-0.0088 -0.0059 -0.0176 -0.0119 -0.0262 -0.0181l-0.0156 -0.0111c-0.0166 -0.0118 -0.0327 -0.0239 -0.0487 -0.0364 -0.0085 -0.0065 -0.0169 -0.0132 -0.0252 -0.0194 -0.0186 -0.0149 -0.0368 -0.0302 -0.0547 -0.046l-0.0008 -0.0006c-0.0174 -0.0151 -0.0345 -0.0308 -0.0511 -0.0468l-0.0009 -0.001c-0.0087 -0.0083 -0.0172 -0.0166 -0.0256 -0.0251 -0.0084 -0.0086 -0.0169 -0.0171 -0.025 -0.0257 -0.0083 -0.0087 -0.0166 -0.0175 -0.0246 -0.0265 -0.0078 -0.0085 -0.0154 -0.0171 -0.023 -0.0258l-0.0026 -0.0029c-0.0393 -0.0455 -0.076 -0.0932 -0.11 -0.1429l-0.0135 -0.0199c-0.0089 -0.0131 -0.0177 -0.0264 -0.0264 -0.0396l-0.0256 -0.0395c-0.0126 -0.0192 -0.0249 -0.0387 -0.0369 -0.0582 -0.0086 -0.0139 -0.017 -0.0279 -0.0254 -0.0419 -0.0071 -0.0119 -0.0141 -0.0238 -0.0209 -0.0355 -0.0038 -0.0064 -0.0074 -0.0129 -0.0109 -0.0195 -0.0036 -0.0067 -0.0079 -0.0135 -0.0117 -0.0204l-0.0061 -0.0107c-0.002 -0.0036 -0.0027 -0.0047 -0.0038 -0.0071 -0.0074 -0.0129 -0.0145 -0.0261 -0.0215 -0.0394 -0.0031 -0.0058 -0.0063 -0.0117 -0.0096 -0.0174l-0.0098 -0.0187 -0.0097 -0.0186 -0.0187 -0.0377c-0.003 -0.0062 -0.006 -0.0124 -0.0089 -0.0186 -0.0064 -0.0134 -0.0125 -0.0265 -0.0186 -0.0397 -0.0024 -0.0053 -0.0049 -0.0106 -0.007 -0.0159 -0.0084 -0.0182 -0.0163 -0.0365 -0.0238 -0.0551 -0.0052 -0.0123 -0.0098 -0.0245 -0.0148 -0.0366 -0.014 -0.0359 -0.0272 -0.0721 -0.0393 -0.1087 -0.0035 -0.0109 -0.0071 -0.0216 -0.0103 -0.0325 -0.0078 -0.0247 -0.0149 -0.0496 -0.0212 -0.0747 -0.0077 -0.0292 -0.0145 -0.0587 -0.0203 -0.0884 -0.0037 -0.0175 -0.0069 -0.0351 -0.0097 -0.0528 -0.0029 -0.0175 -0.0054 -0.035 -0.0075 -0.0524 -0.0044 -0.0347 -0.0076 -0.0694 -0.0094 -0.1043 0 -0.0058 -0.0006 -0.0116 -0.0007 -0.0174 -0.0005 -0.0115 -0.0008 -0.023 -0.0009 -0.0346 -0.0061 -0.4642 0.2289 -0.9107 0.7313 -1.4126 0.8947 -0.894 1.4159 -2.2027 1.4159 -2.2027s0.014 -0.0549 0.0433 -0.1337c0.0097 -0.0262 0.0199 -0.0523 0.0307 -0.0781 0.0123 -0.0291 0.0254 -0.0579 0.0396 -0.0861l0.0041 -0.0083c0.0181 -0.0361 0.0378 -0.0712 0.0592 -0.1054 0.0049 -0.0079 0.0097 -0.0159 0.0153 -0.0237 0.0159 -0.0237 0.0327 -0.0466 0.0505 -0.0689 0.0136 -0.0171 0.0282 -0.0336 0.0435 -0.0492 0.052 -0.0535 0.1112 -0.0972 0.1782 -0.1205l0.0085 -0.0027c0.0057 -0.0019 0.0112 -0.0036 0.017 -0.0053 0.0067 -0.0017 0.0134 -0.0033 0.0202 -0.0047l0.003 -0.0006c0.0143 -0.0028 0.0285 -0.0048 0.0429 -0.0057h0.0013c0.0075 0 0.015 -0.0008 0.0228 -0.0008 0.0192 0.0001 0.0383 0.0016 0.0573 0.0046 0.0807 0.0127 0.1575 0.0607 0.2236 0.1348l0.0089 0.0104c0.0215 0.0253 0.041 0.0522 0.0584 0.0805 0.0131 0.0209 0.0254 0.043 0.037 0.0661 0.0047 0.0098 0.0091 0.0187 0.0136 0.0283 0.0021 0.0049 0.0043 0.0097 0.0064 0.0147 0.0043 0.0096 0.0083 0.0194 0.0124 0.0296 0.0227 0.0583 0.0403 0.1184 0.0527 0.1796 0.0131 0.0662 0.0207 0.1334 0.0229 0.2009 0.0008 0.0296 0.0008 0.0596 0 0.09 -0.0005 0.0116 -0.0011 0.0232 -0.002 0.0348 -0.0089 0.1292 -0.037 0.2564 -0.0835 0.3773 -0.0047 0.012 -0.0098 0.0241 -0.0146 0.0363 -0.0233 0.0559 -0.0505 0.11 -0.0812 0.1621 -0.0175 0.0298 -0.0364 0.0594 -0.0566 0.0887l-0.0124 0.0176c-0.0479 0.0669 -0.1013 0.1298 -0.1598 0.1878 -0.0576 0.0577 -0.1193 0.111 -0.1846 0.1598 -0.0656 0.0484 -0.127 0.1021 -0.1837 0.1604 -0.1633 0.1715 -0.2013 0.3227 -0.1646 0.4373 0.0043 0.0129 0.0094 0.0256 0.0153 0.0379 0.0136 0.0266 0.0312 0.0511 0.0523 0.0724l0.0057 0.0057c0.006 0.0058 0.0123 0.0114 0.0187 0.0167l0.0066 0.0053c0.0158 0.0122 0.0326 0.023 0.05 0.0325 0.005 0.0027 0.0097 0.0054 0.0155 0.008 0.024 0.012 0.0491 0.0215 0.075 0.0288l0.0071 0.0019 0.0097 0.0026 0.0085 0.002 0.009 0.002 0.009 0.0019 0.0086 0.0014c0.0064 0.0012 0.0129 0.0021 0.0193 0.003l0.0063 0.0009 0.0112 0.0012 0.007 0.0006 0.0115 0.0009h0.0066l0.012 0.0005h0.0377l0.0108 -0.0005 0.0123 -0.0008 0.0151 -0.0014 0.0142 -0.0017c0.0031 0 0.0064 -0.0009 0.0096 -0.0014 0.0498 -0.0073 0.0983 -0.0213 0.1441 -0.0418 0.0098 -0.0041 0.0195 -0.0087 0.0284 -0.0134 0.0191 -0.0096 0.0377 -0.0204 0.0555 -0.0322 0.0249 -0.0163 0.0484 -0.0347 0.0704 -0.0547l0.0154 -0.0145c0.0024 -0.0024 0.0049 -0.0047 0.0071 -0.0072 0.015 -0.015 0.0292 -0.0309 0.0423 -0.0475 0.0233 -0.0293 0.0439 -0.0605 0.0618 -0.0933 0.2127 -0.3867 0.4356 -0.7676 0.6684 -1.1421l0.032 -0.0512 0.0323 -0.0513c0.0162 -0.0258 0.0323 -0.0515 0.0485 -0.0768l0.0164 -0.0255 0.0328 -0.051c0.0439 -0.0679 0.0879 -0.1351 0.1322 -0.2016l0.0331 -0.0495c0.0666 -0.0985 0.1329 -0.1943 0.1986 -0.2855l0.0328 -0.045c0.0714 -0.0986 0.1458 -0.195 0.2231 -0.2891l0.0307 -0.0368c0.005 -0.0062 0.0097 -0.0121 0.0153 -0.0181l0.0301 -0.0349c0.005 -0.0058 0.0097 -0.0114 0.015 -0.017l0.0291 -0.0329 0.0146 -0.0158c0.0142 -0.0154 0.0285 -0.0305 0.0431 -0.0455 0.0098 -0.0096 0.0188 -0.0194 0.0282 -0.0284 0.0551 -0.0564 0.1159 -0.107 0.1814 -0.1508l0.0151 -0.0096 0.0153 -0.0098c0.0098 -0.0061 0.0197 -0.012 0.0298 -0.0175 0.2569 -0.1457 0.4696 -0.1565 0.592 -0.0341 0.0742 0.0742 0.1152 0.1971 0.113 0.368 0 0.0076 0 0.0151 -0.0006 0.023v0.0084c0 0.0077 -0.0007 0.0157 -0.0012 0.0236 0 0.0097 -0.0012 0.0195 -0.0022 0.0291 -0.001 0.0098 -0.0014 0.0172 -0.0024 0.0258 0 0.0025 -0.0005 0.005 -0.0009 0.0075 -0.0007 0.0076 -0.0017 0.0153 -0.0027 0.0229 0 0.0024 0 0.0047 -0.001 0.0071 -0.001 0.0103 -0.0026 0.0206 -0.0044 0.0308 -0.0012 0.0095 -0.0027 0.0189 -0.0046 0.0284 -0.0007 0.0054 -0.0018 0.0108 -0.0027 0.0162 -0.0028 0.0154 -0.0065 0.0307 -0.011 0.0457 -0.0083 0.0281 -0.0186 0.0556 -0.0306 0.0823 -0.0052 0.0116 -0.0108 0.0233 -0.0164 0.0347 -0.0118 0.0235 -0.025 0.0477 -0.0396 0.0727 -0.0073 0.0122 -0.0148 0.025 -0.0228 0.0377l-0.0122 0.0193c-0.0124 0.0195 -0.0253 0.0391 -0.0388 0.059 -0.0134 0.0199 -0.0279 0.0402 -0.0434 0.0608 -0.0201 0.0273 -0.0413 0.0553 -0.0637 0.0835l-0.017 0.0214c-0.0479 0.0597 -0.097 0.1184 -0.1472 0.1761l-0.0399 0.0451 -0.0203 0.0228c-0.0277 0.031 -0.0555 0.0617 -0.0836 0.0922l-0.0215 0.0233c-0.0142 0.0154 -0.0291 0.0311 -0.0433 0.0466 -0.0146 0.0158 -0.0294 0.0314 -0.0442 0.0471l-0.0447 0.0471 -0.0453 0.0473c-0.0151 0.0158 -0.0304 0.0317 -0.0457 0.0475l-0.0922 0.0951c-0.4407 0.4519 -0.905 0.9023 -1.0621 1.1833 -0.0105 0.0184 -0.0199 0.0372 -0.0285 0.0564 -0.0223 0.0511 -0.0316 0.0948 -0.0253 0.1301 0.002 0.0116 0.0062 0.0228 0.0121 0.0329 0.009 0.0154 0.0197 0.0295 0.0321 0.0421 0.0058 0.0056 0.0117 0.011 0.0183 0.0158 0.0322 0.023 0.0713 0.0348 0.111 0.0336h0.0124l0.0127 -0.0008 0.0128 -0.0016 0.0106 -0.0015c0.0014 -0.0001 0.0028 -0.0004 0.0042 -0.0007l0.0097 -0.0019 0.0026 -0.0006 0.0106 -0.0023 0.0153 -0.0039 0.0135 -0.004c0.0089 -0.0028 0.0179 -0.0058 0.027 -0.0092 0.0197 -0.0069 0.0389 -0.015 0.0577 -0.024 0.0048 -0.0023 0.0097 -0.0044 0.0143 -0.0069l0.0145 -0.0072c0.0189 -0.0096 0.0377 -0.0199 0.0566 -0.0311 0.0151 -0.0089 0.0301 -0.018 0.0451 -0.0277l0.0146 -0.0097c0.0047 -0.003 0.0096 -0.0062 0.0144 -0.0098l0.0145 -0.0096 0.0076 -0.0054 0.0208 -0.0145c0.0195 -0.0135 0.0376 -0.0273 0.0561 -0.0413l0.0016 -0.0012 0.0292 -0.0226c0.0398 -0.0315 0.0778 -0.0632 0.112 -0.0931l0.0228 -0.0201 0.0022 -0.002 0.0118 -0.0105c0.0281 -0.0251 0.0531 -0.0486 0.0739 -0.0681l0.0085 -0.0082 0.0205 -0.0195 0.0123 -0.0119 0.0043 -0.0044 0.0012 -0.0012c0.0104 -0.0104 0.0104 -0.0104 0.0208 -0.0209l0.0009 -0.0009 0.0039 -0.0035c0.0012 -0.0013 0.0028 -0.0026 0.0047 -0.0042l0.0015 -0.0014 0.0041 -0.0037 0.0221 -0.0195 0.0124 -0.0112c0.0061 -0.0052 0.0127 -0.0112 0.0194 -0.0176l0.0149 -0.013c0.0026 -0.0022 0.0052 -0.0047 0.0079 -0.0071l0.0156 -0.0136 0.0229 -0.02 0.0121 -0.0105c0.0472 -0.0412 0.1048 -0.0908 0.1708 -0.1468l0.027 -0.0228 0.0448 -0.0375 0.0457 -0.0383c0.0597 -0.0495 0.1241 -0.1022 0.1921 -0.157l0.0446 -0.0358c0.0381 -0.0303 0.0772 -0.0612 0.1167 -0.0923 0.0159 -0.0125 0.0321 -0.025 0.0486 -0.0374 0.0406 -0.0313 0.0813 -0.0625 0.1222 -0.0932 0.0932 -0.0704 0.1894 -0.141 0.2866 -0.2097l0.0419 -0.0291c0.0291 -0.0202 0.0582 -0.0403 0.0874 -0.0599l0.0264 -0.018c0.0523 -0.0352 0.105 -0.0696 0.1581 -0.1033l0.0265 -0.0166 0.0261 -0.0163c0.0262 -0.0162 0.0524 -0.0323 0.0783 -0.0479l0.026 -0.0154 0.052 -0.0303c0.0171 -0.0099 0.034 -0.0196 0.051 -0.0291l0.0102 -0.0058 0.0404 -0.022c0.0167 -0.0092 0.0336 -0.018 0.0502 -0.0266l0.025 -0.0128 0.0241 -0.0123c0.0552 -0.0277 0.1114 -0.0533 0.1686 -0.0768 0.0078 -0.0032 0.0155 -0.0064 0.0232 -0.0098 0.0153 -0.0064 0.0306 -0.0122 0.0457 -0.0175 0.0151 -0.0051 0.03 -0.0104 0.0446 -0.0156 0.0134 -0.0045 0.0263 -0.0086 0.0389 -0.0125l0.0043 -0.0013c0.0067 -0.0021 0.0134 -0.004 0.0202 -0.0058l0.0019 -0.0005c0.0137 -0.0039 0.0274 -0.0075 0.0412 -0.0108h0.0011c0.0203 -0.0049 0.0401 -0.009 0.0594 -0.0122 0.0067 -0.0011 0.0132 -0.0022 0.0195 -0.0031 0.0188 -0.0028 0.0377 -0.0048 0.0566 -0.0061 0.012 -0.0008 0.024 -0.0012 0.036 -0.0012h0.0091c0.0122 0 0.0239 0.0008 0.0355 0.002 0.0054 0 0.0107 0.001 0.0159 0.0017h0.0022c0.0052 0.0006 0.0105 0.0014 0.0156 0.0025 0.0051 0.0011 0.0104 0.0019 0.0154 0.0031h0.0017c0.005 0.0011 0.0097 0.0025 0.0149 0.0039 0.0415 0.0112 0.0796 0.0323 0.1113 0.0614l0.0028 0.0028 0.0055 0.0054 0.0055 0.0058c0.0435 0.0458 0.0796 0.0983 0.1068 0.1555l0.0042 0.0097c0.0092 0.0217 0.0165 0.0442 0.0216 0.0672 0.0142 0.0643 0.0104 0.1312 -0.0111 0.1933 -0.0092 0.0271 -0.0205 0.0534 -0.0339 0.0786l-0.0089 0.0161c-0.0339 0.0568 -0.0739 0.1097 -0.1194 0.1578l-0.0098 0.0103c-0.0214 0.0227 -0.0437 0.0448 -0.0666 0.066 -0.0073 0.0068 -0.0148 0.0137 -0.0224 0.0205l-0.0115 0.0104c-0.0239 0.0212 -0.0483 0.0419 -0.0731 0.0621 -0.0044 0.0035 -0.0088 0.0069 -0.0131 0.0106 -0.0172 0.0139 -0.0351 0.0281 -0.0535 0.0422 -0.0637 0.0487 -0.1286 0.0956 -0.1947 0.1409 -0.0389 0.0267 -0.0791 0.0535 -0.1206 0.0808 -0.0773 0.0507 -0.1553 0.1004 -0.2339 0.1491 -0.0227 0.014 -0.0456 0.0282 -0.0688 0.0423 -0.2138 0.1315 -0.4508 0.2721 -0.7035 0.425l-0.0654 0.0398c-0.0716 0.0437 -0.1392 0.0854 -0.2028 0.1251l-0.0321 0.0202 -0.0606 0.0389c-0.024 0.0152 -0.0474 0.0302 -0.0701 0.045 -0.0172 0.011 -0.0339 0.0218 -0.0503 0.0326l-0.0324 0.0213c-0.0157 0.0103 -0.0314 0.0206 -0.047 0.0312l-0.0152 0.0096c-0.0161 0.0108 -0.0318 0.0213 -0.047 0.0318l-0.0249 0.0169 -0.0292 0.0203 -0.027 0.0188c-0.0426 0.0299 -0.0846 0.0605 -0.1263 0.0915l-0.0146 0.0111c-0.0164 0.0124 -0.0323 0.0248 -0.0476 0.0369l-0.02 0.0159c-0.0337 0.0271 -0.0642 0.0531 -0.0918 0.0778l-0.0135 0.0124c-0.0077 0.0071 -0.0153 0.0141 -0.0225 0.0211 -0.0051 0.0048 -0.0098 0.0097 -0.0149 0.0145l-0.007 0.0069c-0.0156 0.0156 -0.0307 0.0315 -0.0453 0.0479l-0.0072 0.0083c-0.016 0.0185 -0.0299 0.0362 -0.0422 0.0535l-0.0054 0.0078c-0.0141 0.0206 -0.0266 0.0425 -0.0373 0.0652l-0.0037 0.0079 -0.0023 0.0056 -0.0018 0.0047 -0.0025 0.0067c-0.0008 0.0022 -0.0023 0.0063 -0.0032 0.0097 -0.0044 0.013 -0.0077 0.0263 -0.0098 0.0399l-0.0011 0.0073 -0.0009 0.0066 -0.0005 0.0064v0.0342c0 0.0028 0 0.0057 0.0006 0.0087 0.0001 0.0017 0.0003 0.0034 0.0006 0.0052 0 0.0028 0.0007 0.0056 0.001 0.0086l0.0021 0.0119v0.0006c0.0008 0.0038 0.0015 0.0076 0.0025 0.0114 0.001 0.0038 0.002 0.008 0.0032 0.012 0.0034 0.0123 0.0077 0.0245 0.0126 0.0363 0 0.0009 0.0007 0.0019 0.001 0.0027 0.0014 0.003 0.0025 0.006 0.004 0.0089 0.0053 0.0124 0.0113 0.0245 0.0178 0.0363l0.0068 0.0123 0.0072 0.0124 0.0075 0.0124c0.0013 0.0021 0.0027 0.0039 0.0043 0.0058l0.0025 0.0026 0.0026 0.0024 0.003 0.0022c0.0019 0.0015 0.004 0.0026 0.0062 0.0038 0.0021 0.001 0.0045 0.0021 0.0069 0.003 0.0026 0.0008 0.0052 0.0016 0.0079 0.0023 0.0627 0.0141 0.1915 -0.0379 0.3627 -0.1283l0.0307 -0.0163 0.0521 -0.0283 0.0255 -0.0142c0.0181 -0.0097 0.0366 -0.0206 0.0554 -0.0314l0.0345 -0.0194c0.2263 -0.1303 0.4968 -0.2978 0.7763 -0.4612 0.0261 -0.0153 0.0524 -0.0305 0.0787 -0.0457l0.0528 -0.0337c0.0264 -0.0152 0.0527 -0.0302 0.0791 -0.045 0.1124 -0.0639 0.2262 -0.1253 0.3413 -0.1841l0.0516 -0.0262c0.0344 -0.0169 0.0684 -0.0335 0.102 -0.0495 0.065 -0.0309 0.1308 -0.0601 0.1972 -0.0878l0.0364 -0.0148 0.0044 -0.0018c0.1928 -0.0763 0.3677 -0.1236 0.5091 -0.1236 0.0307 -0.0002 0.0612 0.0023 0.0914 0.0075h0.0009c0.0098 0.0017 0.0186 0.0037 0.0275 0.006h0.0016c0.0131 0.0031 0.0259 0.0071 0.0383 0.0121 0.0099 0.0036 0.0194 0.0079 0.0287 0.0129 0.0405 0.0205 0.0752 0.0508 0.101 0.0882 0.0022 0.0031 0.0043 0.0064 0.0062 0.0098 0.0096 0.0145 0.0178 0.0299 0.0246 0.0459 0.004 0.0093 0.0077 0.0188 0.0112 0.0292 0.0034 0.0104 0.0065 0.0204 0.0096 0.0311 0.0231 0.0824 0.0208 0.1696 -0.0065 0.2506v-0.0003Z" stroke-width="1"></path>
  <path fill="#fbfbfb" d="M20.3049 47.5535v-0.0532c0 -4.5477 -3.686 -8.2347 -8.2347 -8.2347 -4.54771 0 -8.23583 3.687 -8.23583 8.2347l-0.00024 0.0178 0 0.0354c0.00065 0.0177 0.00083 0.0354 0.00067 0.0532l0.00065 0.0391 0.00022 0.0141 0.00054 0.0193c0.00022 0.0105 0.00055 0.0208 0.00055 0.0312l0.00108 0.0423 0.00174 0.0497 0.00055 0.0163 0.00217 0.0514v0.0024l0.00304 0.06v0.0016c0.00109 0.0205 0.00218 0.041 0.00348 0.0615 0.00109 0.019 0.00228 0.0379 0.00358 0.0568l0.00033 0.0034c0.00096 0.0162 0.00204 0.0325 0.00326 0.0487l0.00033 0.0042c0.00108 0.0156 0.00228 0.0314 0.00358 0.0469l0.00022 0.0031 0.00217 0.0271c0.00651 0.0784 0.01412 0.1567 0.02282 0.2349l0.00055 0.0049 0.00652 0.0573 0.00749 0.0605c0.00504 0.0402 0.0104 0.0803 0.01609 0.1204 0.00339 0.0242 0.00691 0.0483 0.01054 0.0724l0.00054 0.003c0.00812 0.0545 0.01688 0.1091 0.0263 0.1634 0.02702 0.1577 0.05876 0.3146 0.09519 0.4704l0.00054 0.0025 0.00348 0.0147c0.00326 0.0139 0.00652 0.0278 0.01 0.0418l0.00597 -0.0073c0.23907 -0.2857 0.58202 -0.4433 0.96572 -0.4433 0.30752 0 0.62309 0.1016 0.9392 0.3021 0.20972 0.1332 0.44162 0.3692 0.68025 0.666 0.22081 -0.3068 0.53029 -0.5105 0.88432 -0.5662 0.06759 -0.0106 0.13583 -0.016 0.20408 -0.0161 0.80814 0 1.29529 0.7013 1.47894 1.3322 0.09074 0.2132 0.52866 1.1834 1.18877 1.8408 1.0036 1.0027 1.2551 2.0375 0.7581 3.1448h0.0016c0.0339 0.0037 0.0679 0.0072 0.1021 0.0103 0.0203 0.002 0.0406 0.0039 0.0609 0.0057l0.0072 0.0006c0.0149 0.0014 0.0299 0.0027 0.0449 0.0038l0.0413 0.0034c0.0393 0.003 0.0787 0.0057 0.1184 0.0084l0.0313 0.0018 0.0249 0.0014 0.0155 0.0009 0.0485 0.0026 0.0133 0.0005 0.051 0.0022 0.0566 0.0022 0.0457 0.0013 0.0076 0.0003c0.0095 0.0003 0.0193 0.0008 0.029 0.0008l0.0103 0.0002c0.0641 0.0015 0.1281 0.0023 0.1923 0.0023h0.068l0.0487 -0.0006c0.0119 -0.0006 0.0238 -0.0006 0.0357 -0.0006h0.0189l0.0164 -0.0003c0.0064 -0.0003 0.013 -0.0005 0.0194 -0.0005h0.0194l0.0382 -0.0011 0.0573 -0.0019 0.0633 -0.0027c0.0181 -0.0008 0.0362 -0.0017 0.0543 -0.0026l0.0195 -0.0011 0.0288 -0.0017 0.017 -0.0009 0.0127 -0.0008 0.0584 -0.0039c0.0194 -0.0012 0.0389 -0.0027 0.0583 -0.0043l0.0529 -0.0041 0.0372 -0.0031 0.0408 -0.0037c0.0418 -0.0039 0.0835 -0.0081 0.1251 -0.0124 0.0265 -0.003 0.0528 -0.0059 0.0792 -0.009l0.0464 -0.0056c-0.4889 -1.1029 -0.2358 -2.1331 0.7637 -3.1317 0.6587 -0.6582 1.0964 -1.6289 1.1877 -1.8419 0.184 -0.6308 0.6702 -1.3323 1.4789 -1.3323 0.0684 0.0001 0.1366 0.0055 0.2041 0.0162 0.3537 0.0557 0.6633 0.2595 0.8844 0.5662 0.2388 -0.2968 0.4706 -0.5328 0.6803 -0.666 0.3161 -0.2005 0.6319 -0.3021 0.9391 -0.3021 0.3386 0 0.6456 0.1228 0.8774 0.3479 0.0127 -0.0567 0.0249 -0.1134 0.0367 -0.1704 0.0072 -0.0355 0.0142 -0.0711 0.0212 -0.1069 0.0084 -0.0439 0.0165 -0.088 0.0239 -0.1321 0.0019 -0.012 0.004 -0.0239 0.0063 -0.036 0.0036 -0.0188 0.0067 -0.0374 0.0097 -0.0563l0.0011 -0.0072 0.0078 -0.0492 0.0076 -0.0499 0.0001 -0.0005c0.003 -0.0209 0.0062 -0.0418 0.009 -0.0628 0.0023 -0.0159 0.0045 -0.0317 0.0065 -0.0477l0.0013 -0.0092 0.0068 -0.0519 0.0055 -0.0442c0.0034 -0.0291 0.0066 -0.0583 0.0098 -0.0875 0.0014 -0.0116 0.0026 -0.0234 0.0038 -0.0351l0.0011 -0.0094c0.002 -0.0195 0.0039 -0.0388 0.0056 -0.0583l0.0044 -0.0452c0.009 -0.1002 0.0163 -0.2004 0.0219 -0.3008v-0.0006l0.003 -0.0533 0.0005 -0.0119 0.0022 -0.0506c0.0008 -0.019 0.0016 -0.0382 0.0023 -0.0577v-0.0014l0.0005 -0.014c0.0005 -0.012 0.001 -0.0239 0.001 -0.0358l0.0002 -0.0048c0.0004 -0.0111 0.0009 -0.0226 0.0009 -0.0341l0.0003 -0.0097c0.0003 -0.0114 0.0006 -0.0227 0.0006 -0.0342l0.0003 -0.0096c0.0003 -0.0146 0.0006 -0.029 0.0006 -0.0436l0.0008 -0.0537Zm-10.2766 8.2271c0.6521 -0.9565 0.6059 -1.6745 -0.28892 -2.5688 -0.89486 -0.8944 -1.41591 -2.2027 -1.41591 -2.2027s-0.19441 -0.7598 -0.63776 -0.6899c-0.44336 0.0697 -0.7686 1.2051 0.15963 1.8995 0.92822 0.6949 -0.18463 1.1659 -0.54192 0.5139 -0.3574 -0.6522 -1.33225 -2.3287 -1.83863 -2.6492 -0.50573 -0.3207 -0.86139 -0.141 -0.74219 0.5199 0.05922 0.3281 0.60994 0.8879 1.12469 1.4105 0.52204 0.5309 1.0068 1.0237 0.90324 1.1975 -0.20571 0.3464 -0.93018 -0.4069 -0.93018 -0.4069s-2.26895 -2.0647 -2.76229 -1.5268c-0.45521 0.4959 0.24678 0.9174 1.32898 1.567 0.09204 0.0553 0.1868 0.1122 0.28384 0.1709 1.2377 0.7494 1.33442 0.947 1.15838 1.2301 -0.06488 0.1048 -0.47922 -0.144 -0.98886 -0.45 -0.86879 -0.5216 -2.01467 -1.2094 -2.17658 -0.5937 -0.14007 0.5328 0.70274 0.8592 1.46699 1.1551 0.63678 0.2467 1.21923 0.4722 1.13338 0.7785 -0.08878 0.3174 -0.57006 0.0527 -1.09644 -0.2368 -0.5906 -0.325 -1.2377 -0.6811 -1.4496 -0.2793 -0.40033 0.7596 2.7612 1.6539 2.78728 1.6604 1.02146 0.265 3.61532 0.8263 4.52267 -0.5023l0.0002 0.0031Zm4.2011 0c-0.6523 -0.9565 -0.606 -1.6745 0.2889 -2.5688 0.8949 -0.8944 1.4159 -2.2027 1.4159 -2.2027s0.1943 -0.7598 0.6377 -0.6899c0.4433 0.0697 0.7687 1.2051 -0.1597 1.8995 -0.9283 0.6943 0.1847 1.1659 0.5421 0.5139 0.3573 -0.6522 1.3322 -2.3287 1.8375 -2.6492 0.5053 -0.3206 0.8615 -0.141 0.7423 0.5199 -0.0592 0.3281 -0.6099 0.8881 -1.1247 1.4116 -0.5219 0.5307 -1.0067 1.0235 -0.9031 1.1975 0.2056 0.3464 0.9307 -0.4074 0.9307 -0.4074s2.269 -2.0646 2.7623 -1.5267c0.4552 0.4958 -0.2469 0.9174 -1.329 1.5669 -0.092 0.0552 -0.1867 0.1121 -0.2837 0.1708 -1.2377 0.7493 -1.3344 0.9471 -1.1584 1.2301 0.0649 0.1048 0.4792 -0.1439 0.9888 -0.4498 0.8689 -0.5216 2.0146 -1.2095 2.1765 -0.5939 0.1401 0.5328 -0.7027 0.8593 -1.467 1.1551 -0.6367 0.2467 -1.2192 0.4722 -1.1333 0.7785 0.0887 0.3174 0.5698 0.0526 1.0953 -0.2369 0.5906 -0.325 1.2377 -0.6812 1.4496 -0.2793 0.4003 0.7602 -2.7612 1.6539 -2.7873 1.6605 -1.0214 0.2657 -3.6153 0.827 -4.5216 -0.5016l0.0002 0.0019Z" stroke-width="1"></path>
  <path fill="#32343d" d="M14.7524 45.2584c0.1283 0.0454 0.2238 0.1838 0.3147 0.3153 0.1228 0.1778 0.2371 0.3432 0.4125 0.25 0.207 -0.11 0.3766 -0.2788 0.4876 -0.4853 0.1109 -0.2065 0.1581 -0.4411 0.1356 -0.6744 -0.0168 -0.1744 -0.072 -0.3429 -0.1617 -0.4934 -0.0898 -0.1505 -0.2118 -0.2793 -0.3572 -0.377 -0.1455 -0.0977 -0.3109 -0.1618 -0.4841 -0.1879 -0.1733 -0.0261 -0.3502 -0.0134 -0.518 0.0372 -0.2244 0.0676 -0.4237 0.2001 -0.5728 0.381 -0.149 0.1808 -0.2411 0.4017 -0.2647 0.6348 -0.0235 0.2332 0.0227 0.4681 0.1327 0.675 0.0813 0.1529 0.2616 0.0809 0.452 0.0047 0.1493 -0.0597 0.3047 -0.1218 0.4234 -0.08Zm-5.58327 0.0001c-0.12833 0.0454 -0.22396 0.1838 -0.3148 0.3153 -0.1228 0.1777 -0.23711 0.3432 -0.4125 0.25 -0.15463 -0.0823 -0.28905 -0.1979 -0.3937 -0.3384 -0.10464 -0.1405 -0.1768 -0.3024 -0.21135 -0.4742 -0.03456 -0.1717 -0.03065 -0.349 0.01152 -0.519 0.04227 -0.1701 0.12159 -0.3286 0.23232 -0.4643 0.11095 -0.1356 0.25048 -0.245 0.4087 -0.3203 0.15821 -0.0753 0.33121 -0.1144 0.50638 -0.1148 0.17517 -0.0004 0.34827 0.0381 0.50682 0.1126 0.15854 0.0745 0.29861 0.1833 0.4101 0.3183 0.14908 0.1809 0.24128 0.4018 0.26478 0.635 0.0235 0.2332 -0.0227 0.4681 -0.1327 0.675 -0.08155 0.1529 -0.26193 0.0808 -0.45231 0.0046 -0.1492 -0.0597 -0.3046 -0.1217 -0.42326 -0.0798Zm4.71937 5.0802c0.8849 -0.6972 1.2094 -1.8354 1.2094 -2.5363 0 -0.5542 -0.3729 -0.3798 -0.9698 -0.0843l-0.0336 0.0167c-0.548 0.2713 -1.2779 0.6325 -2.0777 0.6325 -0.8007 0 -1.53 -0.3613 -2.07766 -0.6326 -0.61625 -0.3053 -1.00277 -0.4967 -1.00277 0.0678 0 0.7232 0.34577 1.9103 1.29533 2.6004 0.1251 -0.2543 0.3014 -0.48 0.5179 -0.663 0.2163 -0.183 0.4682 -0.3193 0.7398 -0.4004 0.0947 -0.0283 0.1923 0.1348 0.2923 0.3017 0.0964 0.1612 0.1948 0.3259 0.2951 0.3259 0.1067 0 0.2117 -0.1623 0.3142 -0.3209 0.107 -0.1656 0.2113 -0.327 0.3123 -0.2948 0.5081 0.1631 0.9331 0.5168 1.1855 0.9869l-0.0003 0.0004Z" stroke-width="1"></path>
  <path fill="#ff323d" d="M13.8827 50.3419c-0.4609 0.3631 -1.0734 0.6066 -1.8712 0.6066 -0.7495 0 -1.3355 -0.2149 -1.7854 -0.5421 0.1253 -0.2542 0.3016 -0.4799 0.518 -0.6628 0.2163 -0.1829 0.4682 -0.3193 0.7397 -0.4006 0.1861 -0.0555 0.3832 0.6276 0.5873 0.6276 0.2185 0 0.429 -0.6788 0.6266 -0.6157 0.5079 0.1633 0.9328 0.517 1.1855 0.987h-0.0005Z" stroke-width="1"></path>
  <path fill="#ffad03" d="M7.05083 46.2452c-0.08409 0.0566 -0.17854 0.096 -0.27786 0.116 -0.09937 0.02 -0.20169 0.0202 -0.30112 0.0007 -0.09944 -0.0197 -0.19407 -0.0587 -0.2784 -0.1149 -0.08432 -0.0563 -0.15669 -0.1285 -0.21298 -0.2129 -0.05632 -0.0842 -0.09546 -0.1788 -0.11519 -0.2782 -0.0197 -0.0994 -0.01959 -0.2017 0.00033 -0.3012 0.01992 -0.0993 0.05926 -0.1937 0.11573 -0.2779 0.0565 -0.0842 0.12909 -0.1563 0.21352 -0.2124 0.16985 -0.1127 0.37751 -0.1535 0.57735 -0.1134 0.19983 0.0401 0.37576 0.1578 0.48899 0.3272 0.11323 0.1695 0.15474 0.3769 0.1153 0.5769 -0.03945 0.2 -0.15659 0.3763 -0.32567 0.4901Zm11.01877 0c-0.0842 0.0566 -0.1786 0.096 -0.2779 0.116 -0.0993 0.02 -0.2017 0.0202 -0.3011 0.0007 -0.0994 -0.0197 -0.1941 -0.0587 -0.2784 -0.1149 -0.0843 -0.0563 -0.1567 -0.1285 -0.213 -0.2129 -0.0564 -0.0842 -0.0955 -0.1788 -0.1152 -0.2782 -0.0197 -0.0994 -0.0195 -0.2017 0.0003 -0.3012 0.0199 -0.0993 0.0593 -0.1937 0.1158 -0.2779 0.0565 -0.0842 0.1291 -0.1563 0.2135 -0.2124 0.1698 -0.1127 0.3775 -0.1535 0.5773 -0.1134 0.1999 0.0401 0.3757 0.1578 0.489 0.3272 0.1133 0.1695 0.1548 0.3769 0.1153 0.5769 -0.0394 0.2 -0.1566 0.3763 -0.3256 0.4901Z" stroke-width="1"></path>
</svg>