<svg xmlns="http://www.w3.org/2000/svg" fill="none" viewBox="0 0 96 96" id="Openai--Streamline-Svg-Logos">
  <desc>
    Openai Streamline Icon: https://streamlinehq.com
  </desc>
  <path fill="#000000" d="M68.0362 45.4436c-1.3839 0 -2.3715 0.4727 -2.8563 1.3678l-0.2605 0.4848v-1.6193h-2.2519v9.8423h2.3686v-5.8555c0 -1.399 0.7603 -2.2016 2.0849 -2.2016 1.2632 0 1.9874 0.7815 1.9874 2.1433v5.9138h2.3695V49.183c0 -2.3434 -1.2864 -3.7394 -3.4417 -3.7394Zm-11.4866 0c-2.795 0 -4.5259 1.744 -4.5259 4.551v1.3819c0 2.6994 1.751 4.376 4.5701 4.376 1.8858 0 3.2073 -0.6909 4.0391 -2.1121l-1.4684 -0.8448c-0.6145 0.8197 -1.5961 1.3276 -2.5697 1.3276 -1.4271 0 -2.279 -0.881 -2.279 -2.3575v-0.3912h6.6108v-1.6323c0 -2.615 -1.7168 -4.2986 -4.375 -4.2986h-0.002Zm2.2217 4.3398h-4.4636v-0.2364c0 -1.6202 0.7956 -2.5143 2.2398 -2.5143 1.391 0 2.2217 0.881 2.2217 2.3575l0.0021 0.3932Zm36.2291 -5.7267v-1.8828h-8.1929v1.8828H89.68v9.5757h-2.8725v1.8828h8.1929v-1.8828H92.127v-9.5757h2.8734Zm-62.1212 -2.1544c-3.6589 0 -5.9339 2.2801 -5.9339 5.9521v1.9853c0 3.671 2.274 5.952 5.9339 5.952 3.66 0 5.934 -2.281 5.934 -5.952v-1.9853c-0.001 -3.676 -2.2781 -5.9521 -5.934 -5.9521Zm3.486 8.0732c0 2.4379 -1.2703 3.8359 -3.486 3.8359 -2.2156 0 -3.4849 -1.398 -3.4849 -3.8359v-2.2579c0 -2.4379 1.2713 -3.8359 3.4859 -3.8359 2.2147 0 3.486 1.398 3.486 3.8359l-0.001 2.2579Zm9.8875 -4.5319c-1.2431 0 -2.3193 0.5149 -2.8805 1.3769l-0.2544 0.3922v-1.5358h-2.2529v13.2286h2.3695v-4.7913l0.2535 0.3761c0.533 0.7905 1.574 1.2622 2.7849 1.2622 2.0427 0 4.1035 -1.3346 4.1035 -4.3177v-1.6735c0 -2.1493 -1.2703 -4.3177 -4.1236 -4.3177Zm1.754 5.8756c0 1.586 -0.9253 2.5717 -2.4138 2.5717 -1.3879 0 -2.3565 -1.042 -2.3565 -2.5325v-1.4805c0 -1.5086 0.9766 -2.5707 2.3766 -2.5707 1.4775 0 2.3957 0.9847 2.3957 2.5707l-0.002 1.4413Zm30.0186 -9.1443L73.245 55.5192h2.4068l0.9152 -2.8604h5.4954l0.0091 0.0282 0.9051 2.8322h2.4058L80.594 42.1739l-2.5687 0.001Zm-0.871 8.6022 2.1564 -6.7466 2.1342 6.7466h-4.2906Z" stroke-width="1"></path>
  <path fill="#000000" d="M22.3125 45.8999c0.5246 -1.5749 0.3443 -3.2997 -0.4949 -4.732 -1.2633 -2.1954 -3.799 -3.3247 -6.2759 -2.795 -1.1015 -1.2423 -2.6855 -1.9491 -4.3458 -1.9392 -2.53351 -0.0057 -4.78046 1.6262 -5.55878 4.0372 -1.62628 0.3336 -3.02975 1.3522 -3.85102 2.795 -1.26994 2.1917 -0.980198 4.9526 0.7171 6.833 -0.5226 1.5735 -0.34231 3.2959 0.49483 4.727 1.26215 2.1998 3.80099 3.332 6.28091 2.8011 1.10056 1.2407 2.68226 1.9473 4.34086 1.9391 2.5335 0.0057 4.7804 -1.6261 5.5587 -4.0371 1.626 -0.3338 3.0291 -1.3524 3.85 -2.795 1.2734 -2.1913 0.9839 -4.9544 -0.716 -6.8341Zm-8.6927 12.1575c-1.0141 0.0009 -1.9961 -0.3552 -2.7739 -1.0057 0.0342 -0.0191 0.1006 -0.0523 0.1388 -0.0775l4.6063 -2.6592c0.2353 -0.1336 0.38 -0.3841 0.3782 -0.6547v-6.4951l1.9461 1.1234c0.0214 0.0101 0.0359 0.0307 0.0382 0.0543v5.3757c0 2.3943 -1.9395 4.336 -4.3337 4.3388Zm-9.31228 -3.9767c-0.50779 -0.8776 -0.69112 -1.9056 -0.51796 -2.9046 0.03419 0.0211 0.09454 0.0573 0.13678 0.0814l4.60734 2.6603c0.23355 0.1367 0.52277 0.1367 0.75632 0l5.6211 -3.2506v2.2468c0.0022 0.0235 -0.0081 0.0464 -0.0271 0.0604l-4.6566 2.6873c-2.07314 1.1937 -4.72125 0.4842 -5.91988 -1.586v0.005Zm-1.2069 -10.0575c0.50541 -0.8789 1.30404 -1.5518 2.2559 -1.9009v5.4753c-0.00138 0.2705 0.14315 0.5208 0.37816 0.6548l5.62212 3.2465 -1.95315 1.1275c-0.01934 0.013 -0.04398 0.0153 -0.06537 0.006L4.68266 49.944c-2.07131 -1.1983 -2.781 -3.8476 -1.58606 -5.9208h0.00402ZM19.092 47.7445l-5.6221 -3.2466 1.9441 -1.1244c0.0194 -0.0129 0.044 -0.0151 0.0654 -0.0061l4.6556 2.6884c1.4557 0.8411 2.2938 2.4481 2.1503 4.1232 -0.1435 1.6751 -1.2426 3.1162 -2.8201 3.6975v-5.4743c0.0031 -0.2712 -0.1408 -0.5229 -0.3762 -0.6577h0.003Zm1.9381 -2.9167c-0.0342 -0.0211 -0.0945 -0.0573 -0.1368 -0.0815l-4.6073 -2.6602c-0.2336 -0.1368 -0.5228 -0.1368 -0.7563 0l-5.62221 3.2456v-2.2459c-0.00076 -0.0234 0.00971 -0.0459 0.0282 -0.0603l4.65561 -2.6874c1.4563 -0.8394 3.2665 -0.7613 4.6451 0.2004 1.3785 0.9618 2.0768 2.6338 1.7917 4.2903l0.002 -0.001ZM8.84647 48.8347l-1.94713 -1.1234c-0.02028 -0.0112 -0.03408 -0.0314 -0.03722 -0.0543v-5.3758c-0.00128 -1.682 0.97085 -3.2129 2.49376 -3.927 1.52292 -0.7142 3.32152 -0.4826 4.61392 0.594 -0.0342 0.0191 -0.0956 0.0523 -0.1388 0.0774l-4.60637 2.6592c-0.235 0.134 -0.37954 0.3843 -0.37816 0.6548v6.4951Zm1.05704 -2.28 2.50429 -1.4463 2.5033 1.4463v2.8905l-2.5043 1.4463 -2.5043 -1.4463 0.00101 -2.8905Z" stroke-width="1"></path>
</svg>